<svg width="24" height="24" viewBox="0 0 24 24" fill="none" xmlns="http://www.w3.org/2000/svg">
<path d="M11.8252 11.9613C11.8252 10.3111 13.1297 8.97461 14.7377 8.97461C16.3469 8.97461 17.6501 10.3099 17.6501 11.9613C17.6501 13.6115 16.3469 14.948 14.7377 14.948C13.131 14.948 11.8252 13.6128 11.8252 11.9613Z" fill="#1ABCFE"/>
<path d="M6 17.9362C6 16.2861 7.30453 14.9482 8.91246 14.9482H11.8249V17.9362C11.8249 19.5851 10.5204 20.9229 8.91246 20.9229C7.30453 20.9229 6 19.5851 6 17.9362Z" fill="#0ACF83"/>
<path d="M11.8252 3V8.9747H14.7377C16.3469 8.9747 17.6501 7.63689 17.6501 5.98671C17.6501 4.33781 16.3469 3 14.7377 3H11.8252Z" fill="#FF7262"/>
<path d="M6 5.98671C6 7.63689 7.30453 8.9747 8.91246 8.9747H11.8249V3H8.91246C7.30453 3 6 4.33781 6 5.98671Z" fill="#F24E1E"/>
<path d="M6 11.9613C6 13.6115 7.30453 14.948 8.91246 14.948H11.8249V8.97461H8.91246C7.30453 8.97461 6 10.3099 6 11.9613Z" fill="#A259FF"/>
</svg>
