<svg width="24" height="24" viewBox="0 0 24 24" fill="none" xmlns="http://www.w3.org/2000/svg">
<path d="M8.18664 13.2933C7.41348 13.5127 6.90624 13.8974 6.5721 14.2818C6.89214 14.0018 7.32084 13.7447 7.89912 13.5808C8.4906 13.4132 8.9952 13.4144 9.41214 13.4948V13.1688C9.05646 13.1363 8.6487 13.1622 8.18664 13.2933ZM6.53676 10.5525L3.66537 11.309C3.66537 11.309 3.7177 11.3829 3.8146 11.4815L6.24918 10.84C6.24918 10.84 6.21468 11.2845 5.91508 11.6822C6.4818 11.2535 6.53676 10.5525 6.53676 10.5525ZM8.9403 17.3007C4.89949 18.3891 2.76163 13.7062 2.11437 11.2756C1.81533 10.1537 1.68479 9.30394 1.65 8.7556C1.64626 8.69866 1.64799 8.65066 1.65201 8.60668C1.4424 8.61934 1.34204 8.7283 1.36246 9.04318C1.39725 9.59122 1.5278 10.4409 1.82684 11.5632C2.4738 13.9934 4.61195 18.6763 8.65278 17.588C9.53232 17.351 10.1931 16.9194 10.6891 16.3685C10.2319 16.7814 9.6597 17.1066 8.9403 17.3007ZM9.69966 7.68652V7.9741H11.2846C11.2521 7.87228 11.2193 7.78054 11.1868 7.68652H9.69966Z" fill="#2D4552"/>
<path d="M11.6389 10.0548C12.3517 10.2572 12.7286 10.757 12.9279 11.1992L13.7227 11.425C13.7227 11.425 13.6142 9.87714 12.2142 9.47946C10.9045 9.10734 10.0985 10.2072 10.0004 10.3495C10.3814 10.0781 10.9378 9.85584 11.6389 10.0548ZM17.9653 11.2064C16.6544 10.8326 15.8487 11.9347 15.7521 12.0751C16.1334 11.8039 16.6895 11.5816 17.3902 11.7815C18.1019 11.9842 18.4786 12.4834 18.6784 12.9259L19.4743 13.1525C19.4743 13.1525 19.3642 11.6044 17.9653 11.2064ZM17.1757 15.2875L10.5643 13.4392C10.5643 13.4392 10.6359 13.802 10.9105 14.2719L16.477 15.8281C16.9353 15.5629 17.1757 15.2875 17.1757 15.2875ZM12.592 19.2659C7.35709 17.8624 7.98997 11.1923 8.83705 8.03166C9.18583 6.72912 9.54439 5.76098 9.84175 5.112C9.66433 5.07548 9.51739 5.16893 9.37219 5.46424C9.05647 6.10458 8.65273 7.1472 8.26201 8.60676C7.41517 11.7674 6.78229 18.4372 12.017 19.8407C14.4844 20.5017 16.4065 19.4971 17.8394 17.9193C16.4793 19.1512 14.7428 19.8418 12.592 19.2659Z" fill="#2D4552"/>
<path d="M9.69989 15.7378V14.3919L5.96017 15.4523C5.96017 15.4523 6.23651 13.8467 8.18687 13.2934C8.77835 13.1258 9.28301 13.1269 9.69989 13.2075V7.68667H11.5724C11.3685 7.05667 11.1713 6.57163 11.0056 6.23461C10.7316 5.67679 10.4507 6.04657 9.81293 6.57997C9.36377 6.95521 8.22857 7.75573 6.52031 8.21605C4.81202 8.67667 3.43097 8.55451 2.85474 8.45473C2.03783 8.31379 1.61055 8.13439 1.65052 8.75575C1.68531 9.30379 1.81586 10.1535 2.1149 11.2758C2.76186 13.7061 4.90001 18.3889 8.94083 17.3006C9.99635 17.0162 10.7414 16.454 11.2578 15.7375H9.69989V15.7378ZM3.66531 11.3091L6.53699 10.5526C6.53699 10.5526 6.45329 11.6574 5.37675 11.9412C4.29991 12.2247 3.66531 11.3091 3.66531 11.3091Z" fill="#E2574C"/>
<path d="M20.5073 7.7506C19.7608 7.88146 17.97 8.04448 15.7568 7.45126C13.5431 6.8584 12.0743 5.8215 11.4923 5.33412C10.6674 4.64316 10.3045 4.16297 9.9474 4.8893C9.63168 5.52994 9.22794 6.57256 8.83716 8.03212C7.99038 11.1927 7.3575 17.8625 12.5921 19.266C17.8257 20.6684 20.6119 14.5754 21.4588 11.4144C21.8495 9.95518 22.0209 8.85016 22.0681 8.13766C22.1218 7.33054 21.5674 7.56484 20.5073 7.7506ZM9.98994 10.3655C9.98994 10.3655 10.8149 9.08248 12.214 9.48016C13.6141 9.87784 13.7225 11.4257 13.7225 11.4257L9.98994 10.3655ZM13.4053 16.1229C10.9443 15.402 10.5647 13.4396 10.5647 13.4396L17.1758 15.2879C17.1758 15.2876 15.8414 16.8348 13.4053 16.1229ZM15.7427 12.0899C15.7427 12.0899 16.5665 10.8077 17.9654 11.2065C19.3643 11.6048 19.4744 13.1526 19.4744 13.1526L15.7427 12.0899Z" fill="#2EAD33"/>
<path d="M8.39283 14.7623L5.95997 15.4518C5.95997 15.4518 6.22424 13.9463 8.01644 13.3496L6.63885 8.17969L6.51981 8.21587C4.81153 8.67655 3.43048 8.55433 2.85425 8.45455C2.03735 8.31367 1.61006 8.13421 1.65003 8.75563C1.68482 9.30367 1.81537 10.1533 2.11441 11.2756C2.76138 13.7059 4.89952 18.3887 8.94033 17.3004L9.05937 17.263L8.39283 14.7623ZM3.66511 11.309L6.53679 10.5524C6.53679 10.5524 6.45309 11.6572 5.37655 11.941C4.29972 12.2245 3.66511 11.309 3.66511 11.309Z" fill="#D65348"/>
<path d="M13.5163 16.1499L13.405 16.1229C10.944 15.402 10.5644 13.4396 10.5644 13.4396L13.9735 14.3925L15.7784 7.45702L15.7565 7.45126C13.5428 6.8584 12.074 5.8215 11.492 5.33412C10.6671 4.64316 10.3042 4.16297 9.9471 4.8893C9.63168 5.52994 9.22794 6.57256 8.83716 8.03212C7.99038 11.1927 7.3575 17.8625 12.5921 19.266L12.6994 19.2902L13.5163 16.1499ZM9.98994 10.3655C9.98994 10.3655 10.8149 9.08248 12.214 9.48016C13.6141 9.87784 13.7225 11.4257 13.7225 11.4257L9.98994 10.3655Z" fill="#1D8D22"/>
<path d="M8.51657 14.7269L7.86413 14.9121C8.01827 15.781 8.28995 16.6149 8.71637 17.3516C8.79059 17.3352 8.86421 17.3211 8.93981 17.3004C9.13793 17.2469 9.32165 17.1807 9.49853 17.1086C9.02207 16.4015 8.70689 15.5872 8.51657 14.7269ZM8.26181 8.60692C7.92653 9.85828 7.62659 11.6594 7.70915 13.466C7.85693 13.4019 8.01305 13.3421 8.18645 13.2929L8.30723 13.2659C8.15999 11.3362 8.47829 9.36976 8.83685 8.03182C8.92775 7.69336 9.01889 7.37854 9.10973 7.08496C8.96339 7.17808 8.80583 7.27354 8.62637 7.37188C8.50535 7.74544 8.38313 8.15374 8.26181 8.60692Z" fill="#C04B41"/>
</svg>
