<svg width="24" height="24" viewBox="0 0 24 24" fill="none" xmlns="http://www.w3.org/2000/svg">
<path d="M20.9264 13.1428C21.5563 8.21168 18.0739 3.7035 13.1518 3.07361C8.22968 2.44372 3.7035 5.92609 3.07361 10.8482C2.44372 15.7703 5.92609 20.2875 10.8482 20.9264C15.7793 21.5563 20.2875 18.0739 20.9264 13.1428Z" fill="#FF6C37"/>
<path d="M15.2475 8.77948L11.4502 12.5768L10.3794 11.506C14.1137 7.77166 14.4827 8.09561 15.2475 8.77948Z" fill="white"/>
<path d="M11.4515 12.6672C11.4245 12.6672 11.4065 12.6582 11.3885 12.6402L10.3087 11.5694C10.2727 11.5334 10.2727 11.4794 10.3087 11.4434C14.106 7.64611 14.502 8.00605 15.3028 8.72592C15.3208 8.74391 15.3298 8.76191 15.3298 8.78891C15.3298 8.8159 15.3208 8.8339 15.3028 8.85189L11.5055 12.6402C11.4965 12.6582 11.4695 12.6672 11.4515 12.6672ZM10.5067 11.5064L11.4515 12.4512L15.1139 8.78891C14.448 8.19501 13.9981 8.01505 10.5067 11.5064Z" fill="#FF6C37"/>
<path d="M12.5392 13.6637L11.5044 12.6289L15.3017 8.83154C16.3185 9.85736 14.7978 11.5221 12.5392 13.6637Z" fill="white"/>
<path d="M12.5401 13.7538C12.5131 13.7538 12.4951 13.7448 12.4771 13.7268L11.4423 12.692C11.4243 12.674 11.4243 12.656 11.4243 12.629C11.4243 12.602 11.4333 12.584 11.4513 12.566L15.2486 8.76869C15.2846 8.7327 15.3386 8.7327 15.3746 8.76869C15.6086 8.98466 15.7345 9.2906 15.7255 9.60554C15.7075 10.6044 14.5737 11.8731 12.6121 13.7268C12.5851 13.7448 12.5581 13.7538 12.5401 13.7538ZM11.6313 12.629C12.2072 13.2139 12.4501 13.4478 12.5401 13.5378C14.0518 12.0981 15.5186 10.6224 15.5276 9.60554C15.5366 9.37159 15.4466 9.13763 15.2936 8.95766L11.6313 12.629Z" fill="#FF6C37"/>
<path d="M10.3979 11.5313L11.1627 12.2962C11.1807 12.3142 11.1807 12.3321 11.1627 12.3501C11.1537 12.3591 11.1537 12.3591 11.1447 12.3591L9.56101 12.7011C9.48002 12.7101 9.40803 12.6561 9.39004 12.5751C9.38104 12.5301 9.39903 12.4851 9.42603 12.4581L10.3439 11.5403C10.3619 11.5223 10.3889 11.5133 10.3979 11.5313Z" fill="white"/>
<path d="M9.53425 12.7928C9.39928 12.7928 9.30029 12.6848 9.30029 12.5498C9.30029 12.4868 9.32729 12.4238 9.37228 12.3788L10.2901 11.461C10.3441 11.416 10.4161 11.416 10.4701 11.461L11.2349 12.2259C11.2889 12.2708 11.2889 12.3518 11.2349 12.4058C11.2169 12.4238 11.199 12.4328 11.172 12.4418L9.58824 12.7838C9.57024 12.7838 9.55225 12.7928 9.53425 12.7928ZM10.3711 11.632L9.48926 12.5138C9.47126 12.5318 9.46226 12.5588 9.48026 12.5858C9.48926 12.6128 9.51625 12.6218 9.54325 12.6128L11.028 12.2888L10.3711 11.632Z" fill="#FF6C37"/>
<path d="M17.2556 6.672C16.6797 6.1141 15.7529 6.1321 15.195 6.71699C14.6371 7.30189 14.655 8.21972 15.2399 8.77762C15.7169 9.23654 16.4367 9.31753 17.0036 8.97559L15.9778 7.94977L17.2556 6.672Z" fill="white"/>
<path d="M16.2479 9.27269C15.3931 9.27269 14.7002 8.57981 14.7002 7.72497C14.7002 6.87012 15.3931 6.17725 16.2479 6.17725C16.6438 6.17725 17.0308 6.33022 17.3187 6.60917C17.3367 6.62716 17.3457 6.64516 17.3457 6.67216C17.3457 6.69915 17.3367 6.71715 17.3187 6.73515L16.1039 7.94993L17.0578 8.90375C17.0938 8.93975 17.0938 8.99374 17.0578 9.02973C17.0488 9.03873 17.0488 9.03873 17.0398 9.04773C16.8058 9.1917 16.5269 9.27269 16.2479 9.27269ZM16.2479 6.36621C15.4921 6.36621 14.8802 6.9781 14.8892 7.73397C14.8892 8.48983 15.5011 9.10172 16.2569 9.09272C16.4639 9.09272 16.6708 9.04773 16.8598 8.94875L15.915 8.01291C15.897 7.99492 15.888 7.97692 15.888 7.94993C15.888 7.92293 15.897 7.90493 15.915 7.88694L17.1208 6.68116C16.8778 6.47419 16.5719 6.36621 16.2479 6.36621Z" fill="#FF6C37"/>
<path d="M17.2818 6.7011L17.2638 6.68311L15.9771 7.95188L16.9939 8.96869C17.0928 8.9057 17.1918 8.83372 17.2728 8.75273C17.8487 8.18583 17.8487 7.268 17.2818 6.7011Z" fill="white"/>
<path d="M17.004 9.06558C16.977 9.06558 16.959 9.05658 16.941 9.03859L15.9152 8.01277C15.8972 7.99478 15.8882 7.97678 15.8882 7.94978C15.8882 7.92279 15.8972 7.90479 15.9152 7.8868L17.1929 6.60903C17.2289 6.57303 17.2829 6.57303 17.3189 6.60903L17.3459 6.62702C17.9488 7.22991 17.9488 8.20174 17.3549 8.81363C17.2649 8.90361 17.166 8.9846 17.058 9.04759C17.031 9.05658 17.013 9.06558 17.004 9.06558ZM16.1041 7.94978L17.013 8.85862C17.085 8.81363 17.157 8.75064 17.2109 8.69665C17.7239 8.18374 17.7508 7.34689 17.2559 6.80699L16.1041 7.94978Z" fill="#FF6C37"/>
<path d="M15.4013 8.94078C15.1854 8.72482 14.8344 8.72482 14.6185 8.94078L11.2261 12.3332L11.793 12.9001L15.3833 9.75063C15.6173 9.55267 15.6353 9.20173 15.4373 8.96777C15.4193 8.95878 15.4103 8.94978 15.4013 8.94078Z" fill="white"/>
<path d="M11.7833 12.9892C11.7564 12.9892 11.7384 12.9802 11.7204 12.9622L11.1535 12.3953C11.1175 12.3593 11.1175 12.3053 11.1535 12.2693L14.5458 8.87695C14.7978 8.625 15.2027 8.625 15.4547 8.87695C15.7066 9.12891 15.7066 9.53384 15.4547 9.78579C15.4457 9.79479 15.4367 9.80379 15.4277 9.81279L11.8373 12.9622C11.8283 12.9802 11.8103 12.9892 11.7833 12.9892ZM11.3514 12.3323L11.7923 12.7733L15.3197 9.67781C15.5177 9.51584 15.5357 9.21889 15.3737 9.02093C15.2117 8.82296 14.9148 8.80497 14.7168 8.96694C14.7078 8.97594 14.6988 8.98493 14.6808 8.99393L11.3514 12.3323Z" fill="#FF6C37"/>
<path d="M8.6255 16.1925C8.5895 16.2105 8.57151 16.2465 8.5805 16.2825L8.73348 16.9304C8.76947 17.0204 8.71548 17.1284 8.6165 17.1554C8.54451 17.1824 8.46352 17.1554 8.41853 17.1014L7.42871 16.1206L10.6591 12.8901L11.7749 12.9081L12.5308 13.664C12.3508 13.817 11.262 14.8698 8.6255 16.1925Z" fill="white"/>
<path d="M8.55274 17.2455C8.48075 17.2455 8.40877 17.2185 8.36378 17.1645L7.38295 16.1837C7.36496 16.1657 7.35596 16.1477 7.35596 16.1207C7.35596 16.0937 7.36496 16.0757 7.38295 16.0577L10.6134 12.8273C10.6314 12.8093 10.6584 12.8003 10.6764 12.8003L11.7922 12.8183C11.8192 12.8183 11.8371 12.8273 11.8551 12.8453L12.611 13.6011C12.629 13.6191 12.638 13.6461 12.638 13.6731C12.638 13.7001 12.629 13.7181 12.602 13.7361L12.539 13.7901C11.5852 14.627 10.2894 15.4638 8.67872 16.2647L8.83169 16.9036C8.85869 17.0205 8.8047 17.1465 8.69672 17.2095C8.64273 17.2365 8.59773 17.2455 8.55274 17.2455ZM7.56292 16.1207L8.48975 17.0385C8.51675 17.0835 8.57074 17.1015 8.61573 17.0745C8.66072 17.0475 8.67872 16.9935 8.65172 16.9485L8.49875 16.3007C8.48075 16.2197 8.51675 16.1477 8.58874 16.1117C10.1814 15.3108 11.4682 14.483 12.413 13.6641L11.7472 12.9983L10.7124 12.9803L7.56292 16.1207Z" fill="#FF6C37"/>
<path d="M6.66295 16.8954L7.43681 16.1216L8.5886 17.2734L6.75293 17.1474C6.67195 17.1384 6.61796 17.0664 6.62695 16.9854C6.62695 16.9494 6.63595 16.9134 6.66295 16.8954Z" fill="white"/>
<path d="M8.59006 17.3532L6.74539 17.2273C6.61041 17.2183 6.52043 17.1013 6.52943 16.9663C6.53843 16.9123 6.55642 16.8583 6.60141 16.8223L7.37527 16.0485C7.41127 16.0125 7.46526 16.0125 7.50125 16.0485L8.65304 17.2003C8.68004 17.2273 8.68904 17.2633 8.67104 17.2993C8.65304 17.3352 8.62605 17.3532 8.59006 17.3532ZM7.43826 16.2464L6.72739 16.9573C6.7004 16.9753 6.7004 17.0203 6.72739 17.0383C6.73639 17.0473 6.74539 17.0563 6.76339 17.0563L8.3561 17.1643L7.43826 16.2464Z" fill="#FF6C37"/>
<path d="M10.3454 13.3053C10.2914 13.3053 10.2554 13.2603 10.2554 13.2153C10.2554 13.1883 10.2644 13.1703 10.2824 13.1523L11.1552 12.2794C11.1912 12.2434 11.2452 12.2434 11.2812 12.2794L11.8481 12.8463C11.8751 12.8733 11.8841 12.9003 11.8751 12.9363C11.8661 12.9633 11.8391 12.9903 11.8031 12.9993L10.3634 13.3053C10.3544 13.3053 10.3454 13.3053 10.3454 13.3053ZM11.2182 12.4684L10.6243 13.0623L11.5961 12.8553L11.2182 12.4684Z" fill="#FF6C37"/>
<path d="M11.7752 12.9085L10.7853 13.1244C10.7133 13.1424 10.6414 13.0975 10.6234 13.0255C10.6144 12.9805 10.6234 12.9355 10.6594 12.8995L11.2083 12.3506L11.7752 12.9085Z" fill="white"/>
<path d="M10.7679 13.2153C10.642 13.2153 10.543 13.1163 10.543 12.9903C10.543 12.9273 10.57 12.8733 10.606 12.8283L11.1549 12.2794C11.1909 12.2434 11.2448 12.2434 11.2808 12.2794L11.8477 12.8463C11.8747 12.8733 11.8837 12.9003 11.8747 12.9363C11.8657 12.9633 11.8387 12.9903 11.8027 12.9993L10.8129 13.2153C10.7949 13.2153 10.7769 13.2153 10.7679 13.2153ZM11.2178 12.4684L10.7319 12.9543C10.7139 12.9723 10.7139 12.9903 10.7229 13.0083C10.7319 13.0263 10.7499 13.0353 10.7769 13.0353L11.6048 12.8553L11.2178 12.4684Z" fill="#FF6C37"/>
<path d="M17.2904 7.56317C17.2724 7.50918 17.2094 7.48218 17.1554 7.50018C17.1014 7.51818 17.0744 7.58117 17.0924 7.63516C17.0924 7.64416 17.1014 7.65315 17.1014 7.66215C17.1554 7.77013 17.1374 7.90511 17.0654 8.00409C17.0294 8.04908 17.0384 8.11207 17.0744 8.14806C17.1194 8.18406 17.1824 8.17506 17.2184 8.13007C17.3533 7.9591 17.3803 7.74314 17.2904 7.56317Z" fill="#FF6C37"/>
</svg>
