<svg width="24" height="24" viewBox="0 0 24 24" fill="none" xmlns="http://www.w3.org/2000/svg">
<path d="M17.9702 7.59265L18.1764 7.27107L18.5367 7.49632L18.6962 7.6139C19.0812 7.9199 19.8911 8.7019 20.0657 9.99956C20.3723 9.94289 20.6817 9.91456 20.9911 9.91456C21.7254 9.91456 22.219 10.0902 22.4995 10.2361L22.6439 10.3169L22.7374 10.3806L23 10.6016L22.9092 10.885C22.7682 11.2734 22.5478 11.6261 22.263 11.9191C21.8642 12.3427 21.163 12.8428 20.0506 12.908L19.8058 12.915H19.6023C19.0936 14.2991 18.4102 15.8589 17.262 17.2585C16.5808 18.0903 15.7727 18.8022 14.8695 19.3665C13.7866 20.0284 12.6009 20.4924 11.3645 20.7379C10.479 20.9149 9.57976 21.0028 8.67912 20.9999C6.68534 20.9999 4.92531 20.5919 3.84316 19.8779C2.87652 19.2419 2.13401 18.2034 1.63487 16.7939C1.19806 15.5058 0.983528 14.149 1.00099 12.7847C0.998723 12.6098 1.05742 12.4399 1.16641 12.3057C1.2754 12.1716 1.42747 12.0822 1.595 12.0537L1.6885 12.0466H16.1813L16.3078 12.0367L16.5126 12.0141C16.8646 11.9659 17.4009 11.8582 17.7777 11.6316C17.3266 10.8623 17.1988 9.96273 17.4092 9.00506C17.4973 8.6056 17.636 8.21979 17.8217 7.85757L17.9702 7.59265ZM4.97343 9.36065L5.02843 9.37056C5.05355 9.38025 5.07617 9.39576 5.09453 9.41591C5.1129 9.43606 5.12651 9.46029 5.13431 9.48673L5.14256 9.5434V11.4063L5.13431 11.4644C5.12637 11.491 5.11255 11.5153 5.09394 11.5355C5.07533 11.5556 5.05243 11.5711 5.02706 11.5806L4.97343 11.5891H3.0319C2.99571 11.5886 2.96062 11.5762 2.93169 11.5538C2.90277 11.5314 2.88152 11.5001 2.87102 11.4644L2.86139 11.4077V9.54198L2.87102 9.48531C2.87878 9.45846 2.89251 9.43385 2.91113 9.41344C2.92975 9.39302 2.95274 9.37737 2.97827 9.36773L3.0319 9.35923L4.97343 9.36065ZM7.6506 9.36065L7.70423 9.37056C7.72961 9.38006 7.7525 9.3955 7.77111 9.41566C7.78972 9.43581 7.80354 9.46014 7.81148 9.48673L7.81973 9.5434V11.4063L7.81011 11.4644C7.80216 11.491 7.78834 11.5153 7.76973 11.5355C7.75112 11.5556 7.72823 11.5711 7.70285 11.5806L7.64923 11.5891H5.70769C5.67156 11.5883 5.63657 11.5759 5.60769 11.5535C5.57881 11.5311 5.55751 11.5 5.54682 11.4644L5.53719 11.4091V9.5434C5.5369 9.50549 5.54797 9.46841 5.56888 9.43723C5.5898 9.40604 5.61955 9.38227 5.65407 9.36915L5.70769 9.35923L7.6506 9.36065ZM10.3677 9.36065L10.4213 9.37056C10.4464 9.38025 10.469 9.39576 10.4874 9.41591C10.5057 9.43606 10.5194 9.46029 10.5272 9.48673L10.5368 9.5434V11.4063L10.5272 11.4644C10.5192 11.491 10.5054 11.5153 10.4868 11.5355C10.4682 11.5556 10.4453 11.5711 10.4199 11.5806L10.3663 11.5891H8.42474C8.38856 11.5886 8.35346 11.5762 8.32454 11.5538C8.29562 11.5314 8.27437 11.5001 8.26386 11.4644L8.25561 11.4077V9.54198L8.26386 9.48531C8.27162 9.45846 8.28536 9.43385 8.30398 9.41344C8.3226 9.39302 8.34559 9.37737 8.37112 9.36773L8.42474 9.35923L10.3677 9.36065ZM13.0517 9.36065L13.1053 9.37056C13.1307 9.38006 13.1536 9.3955 13.1722 9.41566C13.1908 9.43581 13.2046 9.46014 13.2126 9.48673L13.2222 9.5434V11.4063C13.2225 11.4442 13.2114 11.4813 13.1905 11.5125C13.1696 11.5437 13.1398 11.5674 13.1053 11.5806L13.0503 11.5891H11.1102C11.074 11.5886 11.0389 11.5762 11.01 11.5538C10.981 11.5314 10.9598 11.5001 10.9493 11.4644L10.941 11.4077V9.54198L10.9493 9.48531C10.957 9.45846 10.9708 9.43385 10.9894 9.41344C11.008 9.39302 11.031 9.37737 11.0565 9.36773L11.1115 9.35923H13.0531L13.0517 9.36065ZM15.7605 9.36065L15.8141 9.37056C15.8395 9.38006 15.8624 9.3955 15.881 9.41566C15.8996 9.43581 15.9134 9.46014 15.9214 9.48673L15.9296 9.5434V11.4063C15.9299 11.4442 15.9188 11.4813 15.8979 11.5125C15.877 11.5437 15.8473 11.5674 15.8127 11.5806L15.7591 11.5891H13.8176C13.7814 11.5886 13.7463 11.5762 13.7174 11.5538C13.6885 11.5314 13.6672 11.5001 13.6567 11.4644L13.6485 11.4077V9.54198L13.6567 9.48531C13.6645 9.45846 13.6782 9.43385 13.6968 9.41344C13.7154 9.39302 13.7384 9.37737 13.764 9.36773L13.819 9.35923H15.7591L15.7605 9.36065ZM7.64785 6.68032L7.70285 6.69024C7.72783 6.69978 7.75035 6.71508 7.7687 6.73497C7.78705 6.75486 7.80075 6.77881 7.80873 6.80499L7.81836 6.86307V8.72598C7.81865 8.76389 7.80758 8.80096 7.78666 8.83215C7.76575 8.86333 7.736 8.88711 7.70148 8.90023L7.64785 8.91015H5.70769C5.67121 8.90924 5.63596 8.8964 5.60704 8.87348C5.57811 8.85055 5.55702 8.81874 5.54682 8.78265L5.53719 8.72598V6.86307C5.53718 6.82541 5.54838 6.78864 5.56928 6.75774C5.59018 6.72684 5.61977 6.70328 5.65407 6.69024L5.70769 6.68032H7.64785ZM10.3649 6.68032L10.4199 6.69024C10.4449 6.69978 10.4674 6.71508 10.4858 6.73497C10.5041 6.75486 10.5178 6.77881 10.5258 6.80499L10.5354 6.86307V8.72598C10.5357 8.76389 10.5246 8.80096 10.5037 8.83215C10.4828 8.86333 10.453 8.88711 10.4185 8.90023L10.3649 8.91015H8.42474C8.38826 8.90924 8.35301 8.8964 8.32409 8.87348C8.29516 8.85055 8.27407 8.81874 8.26386 8.78265L8.25561 8.72598V6.86307L8.26386 6.80641C8.27181 6.77982 8.28563 6.75549 8.30424 6.73533C8.32285 6.71518 8.34574 6.69974 8.37112 6.69024L8.42474 6.68032H10.3649ZM13.0503 6.68032C13.1246 6.68032 13.1878 6.73274 13.2112 6.80499L13.2208 6.86307V8.72598C13.2211 8.76389 13.2101 8.80096 13.1891 8.83215C13.1682 8.86333 13.1385 8.88711 13.104 8.90023L13.0489 8.91015H11.1102C11.0737 8.90924 11.0384 8.8964 11.0095 8.87348C10.9806 8.85055 10.9595 8.81874 10.9493 8.78265L10.941 8.72598V6.86307L10.9493 6.80641C10.9572 6.77982 10.971 6.75549 10.9897 6.73533C11.0083 6.71518 11.0312 6.69974 11.0565 6.69024L11.1115 6.68032H13.0531H13.0503ZM13.0503 4C13.1246 4 13.1878 4.05242 13.2112 4.12467L13.2208 4.18133V6.04566C13.2211 6.08356 13.2101 6.12064 13.1891 6.15183C13.1682 6.18301 13.1385 6.20679 13.104 6.21991L13.0489 6.22841H11.1102C11.074 6.22791 11.0389 6.21556 11.01 6.19315C10.981 6.17073 10.9598 6.13942 10.9493 6.10374L10.941 6.04708V4.18133L10.9493 4.12467C10.9572 4.09808 10.971 4.07375 10.9897 4.05359C11.0083 4.03344 11.0312 4.018 11.0565 4.0085L11.1102 4H13.0517H13.0503Z" fill="#2396ED"/>
</svg>
